<svg width="20" height="14" viewBox="0 0 20 14" fill="none" xmlns="http://www.w3.org/2000/svg">
<path d="M1.11111 14.0001H18.8889C19.5 14.0001 20 13.5001 20 12.889C20 12.2779 19.5 11.7779 18.8889 11.7779H1.11111C0.5 11.7779 0 12.2779 0 12.889C0 13.5001 0.5 14.0001 1.11111 14.0001ZM1.11111 8.44453H18.8889C19.5 8.44453 20 7.94453 20 7.33342C20 6.7223 19.5 6.2223 18.8889 6.2223H1.11111C0.5 6.2223 0 6.7223 0 7.33342C0 7.94453 0.5 8.44453 1.11111 8.44453ZM0 1.77786C0 2.38897 0.5 2.88897 1.11111 2.88897H18.8889C19.5 2.88897 20 2.38897 20 1.77786C20 1.16675 19.5 0.666748 18.8889 0.666748H1.11111C0.5 0.666748 0 1.16675 0 1.77786Z" fill="black"/>
</svg>
