<svg width="19" height="19" viewBox="0 0 19 19" fill="none" xmlns="http://www.w3.org/2000/svg">
<path d="M9.519 0C14.915 0 19 4.42414 19 9.48573C19 15.356 14.212 19 9.5 19C7.942 19 6.213 18.5814 4.826 17.7631C4.3415 17.4682 3.933 17.2494 3.4105 17.4206L1.4915 17.9915C1.007 18.1437 0.57 17.7631 0.7125 17.2494L1.349 15.1182C1.4535 14.8232 1.4345 14.5093 1.2825 14.2619C0.4655 12.7586 0 11.1127 0 9.51427C0 4.50976 3.9995 0 9.519 0ZM13.8605 8.30596C13.186 8.30596 12.6445 8.84827 12.6445 9.52379C12.6445 10.1898 13.186 10.7416 13.8605 10.7416C14.535 10.7416 15.0765 10.1898 15.0765 9.52379C15.0765 8.84827 14.535 8.30596 13.8605 8.30596ZM9.481 8.30596C8.816 8.29644 8.265 8.84827 8.265 9.51427C8.265 10.1898 8.8065 10.7321 9.481 10.7416C10.1555 10.7416 10.697 10.1898 10.697 9.52379C10.697 8.84827 10.1555 8.30596 9.481 8.30596ZM5.1015 8.30596C4.427 8.30596 3.8855 8.84827 3.8855 9.52379C3.8855 10.1898 4.4365 10.7416 5.1015 10.7416C5.776 10.7321 6.3175 10.1898 6.3175 9.52379C6.3175 8.84827 5.776 8.30596 5.1015 8.30596Z" fill="#F08143"/>
</svg>
