<svg width="19" height="19" viewBox="0 0 19 19" fill="none" xmlns="http://www.w3.org/2000/svg">
<path fill-rule="evenodd" clip-rule="evenodd" d="M9.50127 0C12.0409 0 14.4276 0.987392 16.2203 2.78096C19.9259 6.48655 19.9259 12.5152 16.2203 16.2208C14.4038 18.0382 11.9578 19 9.48005 19C8.12935 19 6.76981 18.7145 5.49778 18.1258C5.12298 17.9755 4.77204 17.834 4.52011 17.834C4.23017 17.8358 3.84034 17.9702 3.46377 18.1001C2.69118 18.3653 1.72943 18.6959 1.01783 17.987C0.308891 17.2771 0.635959 16.318 0.899381 15.5463C1.02932 15.1662 1.1628 14.7738 1.1628 14.4767C1.1628 14.2328 1.04524 13.9216 0.864907 13.4734C-0.790765 9.89778 -0.0252486 5.58844 2.78312 2.78185C4.5758 0.988276 6.96163 0 9.50127 0ZM9.50215 1.32595C7.3161 1.32595 5.26264 2.17633 3.72012 3.71974C1.30335 6.13474 0.645683 9.84298 2.08213 12.9484C2.28898 13.4602 2.48875 13.9587 2.48875 14.4767C2.48875 14.9939 2.31108 15.5145 2.15462 15.9742C2.02556 16.3525 1.8302 16.9236 1.95572 17.0491C2.07859 17.1764 2.65317 16.9757 3.03239 16.8458C3.48764 16.6902 4.00388 16.5116 4.51569 16.5081C5.02839 16.5081 5.51192 16.7026 6.02374 16.9085C9.15917 18.3582 12.8674 17.6988 15.2833 15.2838C18.4709 12.0944 18.4709 6.90644 15.2833 3.71885C13.7399 2.17544 11.6873 1.32595 9.50215 1.32595ZM12.9911 8.9835C13.479 8.9835 13.8751 9.37863 13.8751 9.86747C13.8751 10.3563 13.479 10.7514 12.9911 10.7514C12.5031 10.7514 12.1036 10.3563 12.1036 9.86747C12.1036 9.37863 12.4952 8.9835 12.9831 8.9835H12.9911ZM9.44744 8.9835C9.93539 8.9835 10.3314 9.37863 10.3314 9.86747C10.3314 10.3563 9.93539 10.7514 9.44744 10.7514C8.95949 10.7514 8.55993 10.3563 8.55993 9.86747C8.55993 9.37863 8.95065 8.9835 9.43948 8.9835H9.44744ZM5.90343 8.9835C6.39138 8.9835 6.7874 9.37863 6.7874 9.86747C6.7874 10.3563 6.39138 10.7514 5.90343 10.7514C5.41548 10.7514 5.01593 10.3563 5.01593 9.86747C5.01593 9.37863 5.40753 8.9835 5.89548 8.9835H5.90343Z" fill="black"/>
</svg>
