<svg width="17" height="17" viewBox="0 0 17 17" fill="none" xmlns="http://www.w3.org/2000/svg">
<path d="M5.63956 15.9573V13.3583C5.63956 12.6948 6.18134 12.157 6.84967 12.157H9.29271C9.61365 12.157 9.92145 12.2835 10.1484 12.5088C10.3753 12.7341 10.5028 13.0397 10.5028 13.3583V15.9573C10.5008 16.2332 10.6097 16.4984 10.8055 16.6941C11.0013 16.8899 11.2676 17 11.5455 17H13.2122C13.9907 17.002 14.7379 16.6964 15.2891 16.1507C15.8402 15.6049 16.15 14.8639 16.15 14.0911V6.68683C16.15 6.06259 15.8712 5.47046 15.3889 5.06997L9.71891 0.574488C8.73261 -0.213722 7.31944 -0.188273 6.36258 0.634932L0.82196 5.06997C0.316829 5.45866 0.0149194 6.05254 0 6.68683V14.0836C0 15.6943 1.31527 17 2.93775 17H4.56644C5.14354 17 5.61254 16.5378 5.61673 15.9649L5.63956 15.9573Z" fill="#F08143"/>
</svg>
