<svg width="19" height="19" viewBox="0 0 19 19" fill="none" xmlns="http://www.w3.org/2000/svg">
<path fill-rule="evenodd" clip-rule="evenodd" d="M10.352 12.6264C11.4158 12.6264 12.2816 13.486 12.2816 14.5427V17.2604C12.2816 17.4874 12.4636 17.6694 12.6969 17.6747H14.3808C15.7078 17.6747 16.7866 16.6092 16.7866 15.2999V7.59218C16.7804 7.14159 16.5657 6.71751 16.1973 6.43567L10.3724 1.7902C9.59045 1.17087 8.49667 1.17087 7.71212 1.79197L1.92692 6.43391C1.54437 6.72458 1.32968 7.14866 1.32526 7.6072V15.2999C1.32526 16.6092 2.40402 17.6747 3.73104 17.6747H5.43091C5.67034 17.6747 5.86471 17.4848 5.86471 17.2515C5.86471 17.2003 5.87089 17.1491 5.88149 17.1005V14.5427C5.88149 13.4922 6.74203 12.6335 7.79782 12.6264H10.352ZM14.3808 19H12.681C11.7073 18.977 10.9563 18.2128 10.9563 17.2604V14.5427C10.9563 14.2167 10.6851 13.9517 10.352 13.9517H7.80223C7.47622 13.9534 7.20675 14.2194 7.20675 14.5427V17.2515C7.20675 17.3178 7.19792 17.3814 7.17936 17.4415C7.08394 18.3162 6.3365 19 5.43091 19H3.73104C1.67336 19 0 17.3399 0 15.2999V7.60102C0.00883505 6.72281 0.41348 5.91882 1.11233 5.3896L6.88604 0.755618C8.1574 -0.251578 9.92883 -0.251578 11.1975 0.753851L17.0128 5.39225C17.6957 5.91264 18.1004 6.71486 18.1119 7.58246V15.2999C18.1119 17.3399 16.4385 19 14.3808 19Z" fill="black"/>
</svg>
