<svg width="13" height="13" viewBox="0 0 13 13" fill="none" xmlns="http://www.w3.org/2000/svg">
<g clip-path="url(#clip0_366_4150)">
<path d="M8.07888 11.2798C6.51618 12.8425 3.98474 12.8425 2.42203 11.2798C0.859324 9.71714 0.859324 7.18569 2.42203 5.62299L6.66467 1.38035C7.83847 0.206551 9.73351 0.206551 10.9073 1.38035C12.0811 2.55415 12.0811 4.44919 10.9073 5.62299L6.66467 9.86563C5.88685 10.6434 4.61406 10.6434 3.83624 9.86563C3.05843 9.08781 3.05843 7.81502 3.83624 7.0372L8.07888 2.79456L8.78599 3.50167L4.54335 7.74431C4.15444 8.13322 4.15444 8.76961 4.54335 9.15852C4.93226 9.54743 5.56865 9.54743 5.95756 9.15852L10.2002 4.91588C10.978 4.13806 10.978 2.86527 10.2002 2.08745C9.42239 1.30964 8.14959 1.30964 7.37178 2.08745L3.12914 6.3301C1.95534 7.50389 1.95534 9.39894 3.12914 10.5727C4.30293 11.7465 6.19798 11.7465 7.37178 10.5727L10.9073 7.0372L11.6144 7.74431L8.07888 11.2798Z" fill="#F08143"/>
</g>
<defs>
<clipPath id="clip0_366_4150">
<rect width="12" height="12" fill="white" transform="translate(0.5 0.5)"/>
</clipPath>
</defs>
</svg>
