<svg width="13" height="16" viewBox="0 0 13 16" fill="none" xmlns="http://www.w3.org/2000/svg">
<path fill-rule="evenodd" clip-rule="evenodd" d="M6.28117 0.00132508C8.47118 0.00132508 10.2547 1.78483 10.2547 3.97708L10.2546 5.15952C11.586 5.62288 12.5438 6.89038 12.5438 8.37792V11.5947C12.5438 13.4734 11.016 15.0012 9.13725 15.0012H3.4065C1.52775 15.0012 0 13.4734 0 11.5947V8.37792C0 6.89066 0.957391 5.62336 2.2884 5.15979L2.28892 3.97708C2.29342 2.89708 2.71118 1.90033 3.46493 1.15333C4.21943 0.405575 5.21543 -0.0271749 6.28117 0.00132508ZM9.13725 6.09643H3.4065C2.148 6.09643 1.125 7.11942 1.125 8.37792V11.5947C1.125 12.8532 2.148 13.8762 3.4065 13.8762H9.13725C10.395 13.8762 11.4188 12.8532 11.4188 11.5947V8.37792C11.4188 7.11942 10.395 6.09643 9.13725 6.09643ZM6.27172 8.59077C6.58222 8.59077 6.83422 8.84278 6.83422 9.15327V10.819C6.83422 11.1295 6.58222 11.3815 6.27172 11.3815C5.96123 11.3815 5.70922 11.1295 5.70922 10.819V9.15327C5.70922 8.84278 5.96123 8.59077 6.27172 8.59077ZM6.27892 1.12633H6.26692C5.50717 1.12633 4.79542 1.41883 4.25768 1.95208C3.71617 2.48758 3.41692 3.20232 3.41392 3.96432L3.41325 4.971H9.129L9.12967 3.97708C9.12967 2.40508 7.85092 1.12633 6.27892 1.12633Z" fill="black"/>
</svg>
