<svg width="20" height="19" viewBox="0 0 20 19" fill="none" xmlns="http://www.w3.org/2000/svg">
<path fill-rule="evenodd" clip-rule="evenodd" d="M10.6677 0C8.34395 0 6.45345 1.8905 6.45345 4.2142V5.0996C6.45345 5.4929 6.77265 5.8121 7.16595 5.8121C7.55925 5.8121 7.87845 5.4929 7.87845 5.0996V4.2142C7.87845 2.6752 9.1296 1.425 10.6677 1.425H15.2989C16.8351 1.425 18.0853 2.6752 18.0853 4.2142V14.7867C18.0853 16.3248 16.8351 17.575 15.2989 17.575H10.6572C9.1258 17.575 7.87845 16.3286 7.87845 14.7972V13.9014C7.87845 13.508 7.55925 13.1889 7.16595 13.1889C6.77265 13.1889 6.45345 13.508 6.45345 13.9014V14.7972C6.45345 17.1152 8.34015 19 10.6572 19H15.2989C17.6207 19 19.5103 17.1104 19.5103 14.7867V4.2142C19.5103 1.8905 17.6207 0 15.2989 0H10.6677ZM2.99156 6.2263L0.209959 8.99555C0.185144 9.02017 0.162924 9.04578 0.142588 9.07287L0.209959 8.99555C0.1763 9.02873 0.146368 9.06499 0.120398 9.10366C0.108967 9.12118 0.0979404 9.1393 0.0877228 9.15792C0.0794296 9.17247 0.0717983 9.18765 0.064724 9.20309C0.0587273 9.21673 0.052969 9.23038 0.0476341 9.24423C0.0404701 9.26229 0.0341988 9.28085 0.028698 9.29965C0.0245533 9.31447 0.0207424 9.32924 0.0174026 9.3442C0.0131588 9.36235 0.00981712 9.3806 0.0071888 9.399C0.00570107 9.41096 0.00424576 9.42349 0.00312233 9.43612C0.000947952 9.45779 9.53674e-06 9.47885 9.53674e-06 9.5L0.00485229 9.5589L0.00680161 9.59664C0.00702095 9.59825 0.00724411 9.59986 0.0074749 9.60147L9.53674e-06 9.5C9.53674e-06 9.55274 0.00584793 9.60495 0.0171986 9.65572C0.0207424 9.67075 0.0245533 9.68553 0.0288181 9.70012C0.0341988 9.71915 0.0404701 9.73771 0.0474968 9.75598C0.052969 9.76962 0.0587273 9.78327 0.0648899 9.79669C0.0718002 9.81235 0.0794296 9.82753 0.0876064 9.84243C0.0979404 9.8607 0.108965 9.87882 0.120752 9.89638C0.12742 9.90679 0.134735 9.91708 0.142336 9.92717C0.164953 9.95693 0.189602 9.98492 0.21627 10.0109L2.99156 12.7746C3.13026 12.9133 3.31266 12.9827 3.49411 12.9827C3.67651 12.9827 3.85986 12.9133 3.99856 12.7727C4.27596 12.4934 4.27501 12.0431 3.99666 11.7657L2.43875 10.2125H12.1517C12.545 10.2125 12.8642 9.8933 12.8642 9.5C12.8642 9.1067 12.545 8.7875 12.1517 8.7875H2.43685L3.99666 7.2352C4.27501 6.9578 4.27691 6.5075 3.99856 6.2282C3.72116 5.9489 3.27086 5.9489 2.99156 6.2263Z" fill="black"/>
</svg>
