<svg width="16" height="19" viewBox="0 0 16 19" fill="none" xmlns="http://www.w3.org/2000/svg">
<path fill-rule="evenodd" clip-rule="evenodd" d="M7.95553 0.0016783C10.7293 0.0016783 12.9882 2.2606 12.9882 5.03723L12.9881 6.53489C14.6744 7.12176 15.8875 8.72713 15.8875 10.6112V14.6854C15.8875 17.065 13.9525 19 11.5729 19H4.31456C1.935 19 0 17.065 0 14.6854V10.6112C0 8.72749 1.2126 7.12237 2.89842 6.53522L2.89908 5.03723C2.90478 3.66934 3.43389 2.40689 4.38856 1.46076C5.34419 0.513688 6.60569 -0.0344189 7.95553 0.0016783ZM11.5729 7.72153H4.31456C2.72059 7.72153 1.42489 9.01723 1.42489 10.6112V14.6854C1.42489 16.2794 2.72059 17.5751 4.31456 17.5751H11.5729C13.166 17.5751 14.4626 16.2794 14.4626 14.6854V10.6112C14.4626 9.01723 13.166 7.72153 11.5729 7.72153ZM7.94356 10.8808C8.33683 10.8808 8.65601 11.2 8.65601 11.5932V13.703C8.65601 14.0963 8.33683 14.4155 7.94356 14.4155C7.55029 14.4155 7.23112 14.0963 7.23112 13.703V11.5932C7.23112 11.2 7.55029 10.8808 7.94356 10.8808ZM7.95268 1.42657H7.93748C6.97521 1.42657 6.07373 1.79704 5.39263 2.47243C4.70679 3.15068 4.32777 4.05596 4.32397 5.02108L4.32311 6.29611H11.5625L11.5633 5.03723C11.5633 3.04619 9.94373 1.42657 7.95268 1.42657Z" fill="#F08143"/>
</svg>
