<svg width="14" height="17" viewBox="0 0 14 17" fill="none" xmlns="http://www.w3.org/2000/svg">
<path fill-rule="evenodd" clip-rule="evenodd" d="M13.0362 13.6505C13.0362 16.3631 9.31627 16.6767 6.51892 16.6767L6.31874 16.6765C4.5365 16.6722 0 16.5596 0 13.6341C0 10.9768 3.57043 10.6217 6.34649 10.6083L6.71909 10.6081C8.50121 10.6124 13.0362 10.7249 13.0362 13.6505ZM6.51892 11.8424C3.01215 11.8424 1.23449 12.4448 1.23449 13.6341C1.23449 14.834 3.01215 15.4422 6.51892 15.4422C10.0249 15.4422 11.8017 14.8397 11.8017 13.6505C11.8017 12.4506 10.0249 11.8424 6.51892 11.8424ZM6.51892 0.323486C8.92864 0.323486 10.8882 2.28385 10.8882 4.69357C10.8882 7.10329 8.92864 9.06284 6.51892 9.06284H6.49258C4.0878 9.05543 2.13978 7.09424 2.14798 4.69111C2.14798 2.28385 4.10838 0.323486 6.51892 0.323486ZM6.51892 1.49872C4.75689 1.49872 3.32322 2.93155 3.32322 4.69357C3.31748 6.44984 4.74043 7.88185 6.49505 7.88843L6.51892 8.47605V7.88843C8.28012 7.88843 9.71295 6.45478 9.71295 4.69357C9.71295 2.93155 8.28012 1.49872 6.51892 1.49872Z" fill="black"/>
</svg>
