<svg width="14" height="15" viewBox="0 0 14 15" fill="none" xmlns="http://www.w3.org/2000/svg">
<path d="M10.262 0.5C12.642 0.5 14 1.844 14 4.231V10.769C14 13.142 12.649 14.5 10.269 14.5H3.731C1.344 14.5 0 13.142 0 10.769V4.231C0 1.844 1.344 0.5 3.731 0.5H10.262ZM6.993 4.357C6.671 4.357 6.412 4.616 6.412 4.938V6.912H4.431C4.277 6.912 4.13 6.975 4.018 7.08C3.913 7.192 3.85 7.3383 3.85 7.493C3.85 7.815 4.109 8.074 4.431 8.081H6.412V10.062C6.412 10.384 6.671 10.643 6.993 10.643C7.315 10.643 7.574 10.384 7.574 10.062V8.081H9.562C9.884 8.074 10.143 7.815 10.143 7.493C10.143 7.171 9.884 6.912 9.562 6.912H7.574V4.938C7.574 4.616 7.315 4.357 6.993 4.357Z" fill="#F08143"/>
</svg>
