<svg width="24" height="19" viewBox="0 0 24 19" fill="none" xmlns="http://www.w3.org/2000/svg">
<path d="M22.4189 9.54352C22.8623 9.54352 23.2222 9.89649 23.2222 10.3323C23.2222 10.767 22.8623 11.1189 22.4189 11.1189H21.2979V14.8762C21.2979 17.1514 19.4117 19 17.0937 19H15.4122C14.9678 19 14.6078 18.647 14.6078 18.2113C14.6078 17.7765 14.9678 17.4236 15.4122 17.4236H17.0937C18.5261 17.4236 19.6914 16.2819 19.6914 14.8762V11.1189H16.9227V12.1654C16.9332 13.4748 15.8618 14.545 14.5266 14.5574H8.69567C7.36144 14.545 6.29005 13.4748 6.30061 12.1654V11.1189H3.53189V14.8804C3.53189 16.2808 4.69406 17.4205 6.12222 17.4225L7.84067 17.4236C8.284 17.4236 8.64394 17.7765 8.64394 18.2113C8.64289 18.647 8.284 19 7.83961 19L6.12011 18.999C3.80739 18.9969 1.92428 17.1493 1.92428 14.8804V11.1189H0.804333C0.361 11.1189 0 10.767 0 10.3323C0 9.89649 0.361 9.54352 0.804333 9.54352H22.4189ZM14.5271 3.95058C15.1657 3.95058 15.779 4.20211 16.2255 4.6503C16.6751 5.10263 16.9242 5.71022 16.9232 6.34265V7.6572C16.9179 7.81143 16.7923 7.93667 16.635 7.94081H6.58614C6.42992 7.93563 6.30431 7.81039 6.30104 7.6572V6.34265C6.28953 5.03328 7.36197 3.96404 8.69619 3.95058H14.5271ZM17.0932 0.000310523C19.4123 0.000310523 21.2975 1.84896 21.2975 4.12303V6.08243C21.2975 6.51716 20.9386 6.87116 20.4942 6.87116C20.0509 6.87116 19.691 6.51716 19.691 6.08243V4.12303C19.691 2.71843 18.5256 1.5757 17.0932 1.5757H15.4117C14.9684 1.5757 14.6085 1.22377 14.6085 0.78904C14.6085 0.353272 14.9684 0.000310523 15.4117 0.000310523H17.0932ZM7.84035 0C8.28368 0 8.64363 0.352962 8.64363 0.78873C8.64363 1.22346 8.28474 1.57642 7.84035 1.57642L6.12085 1.57746C4.69374 1.57953 3.53263 2.71915 3.53263 4.11961V6.08212C3.53263 6.51685 3.17163 6.87085 2.72829 6.87085C2.28496 6.87085 1.92502 6.51685 1.92502 6.08212V4.11961C1.92502 1.85072 3.80707 0.00310524 6.11979 0.00103508L7.84035 0Z" fill="#F08143"/>
</svg>
