<svg width="23" height="19" viewBox="0 0 23 19" fill="none" xmlns="http://www.w3.org/2000/svg">
<path fill-rule="evenodd" clip-rule="evenodd" d="M3.4129 14.4608C3.4129 16.1258 4.76798 17.4809 6.43397 17.4809H7.68574C8.10502 17.4809 8.44531 17.8211 8.44531 18.2404C8.44531 18.6597 8.10502 19 7.68574 19H6.43397C3.93042 19 1.89376 16.9633 1.89376 14.4608L1.89285 11.0938L0.759571 11.0947C0.340288 11.0947 0 10.7544 0 10.3351C0 9.91584 0.340288 9.57555 0.759571 9.57555L2.63883 9.57437C2.64366 9.57428 2.64849 9.57423 2.65333 9.57423L2.66761 9.57464L20.1183 9.57439C20.1234 9.57429 20.1285 9.57423 20.1337 9.57423L20.1479 9.57464L22.0275 9.57555C22.4468 9.57555 22.7871 9.91584 22.7871 10.3351C22.7871 10.7544 22.4468 11.0947 22.0275 11.0947L20.8933 11.0938V14.4608C20.8933 16.9633 18.8566 19 16.353 19H15.1327C14.7134 19 14.3731 18.6597 14.3731 18.2404C14.3731 17.8211 14.7134 17.4809 15.1327 17.4809H16.353C18.019 17.4809 19.3741 16.1258 19.3741 14.4608V11.0938H3.41199L3.4129 14.4608ZM16.3529 0C18.8565 0 20.8932 2.03666 20.8932 4.53818V6.0715C20.8932 6.49078 20.5529 6.83107 20.1336 6.83107C19.7143 6.83107 19.374 6.49078 19.374 6.0715V4.53818C19.374 2.87421 18.0189 1.51914 16.3529 1.51914H15.1326C14.7133 1.51914 14.373 1.17885 14.373 0.759571C14.373 0.340288 14.7133 0 15.1326 0H16.3529ZM7.68594 0C8.10523 0 8.44551 0.340288 8.44551 0.759571C8.44551 1.17885 8.10523 1.51914 7.68594 1.51914H6.43417C4.76818 1.51914 3.41311 2.87421 3.41311 4.53818V6.0715C3.41311 6.49078 3.07282 6.83107 2.65353 6.83107C2.23425 6.83107 1.89396 6.49078 1.89396 6.0715V4.53818C1.89396 2.03666 3.93063 0 6.43417 0H7.68594Z" fill="black"/>
</svg>
