<svg width="20" height="20" viewBox="0 0 20 20" fill="none" xmlns="http://www.w3.org/2000/svg">
<path d="M13.978 0.833984C17.0855 0.833984 19.1663 3.01565 19.1663 6.26065V13.7507C19.1663 16.9857 17.0855 19.1673 13.978 19.1673H6.03051C2.92301 19.1673 0.833008 16.9857 0.833008 13.7507V6.26065C0.833008 3.01565 2.92301 0.833984 6.03051 0.833984H13.978ZM13.8313 7.25065C13.5197 6.93898 13.0063 6.93898 12.6947 7.25065L8.90884 11.0365L7.30467 9.43232C6.99301 9.12065 6.47967 9.12065 6.16801 9.43232C5.85634 9.74398 5.85634 10.2482 6.16801 10.569L8.34967 12.7415C8.50551 12.8973 8.70718 12.9707 8.90884 12.9707C9.11967 12.9707 9.32134 12.8973 9.47717 12.7415L13.8313 8.38732C14.143 8.07565 14.143 7.57148 13.8313 7.25065Z" fill="white"/>
</svg>
